<?xml version="1.0" encoding="UTF-8" standalone="no"?> <svg xmlns:xlink="http://www.w3.org/1999/xlink" xmlns="http://www.w3.org/2000/svg" width="349.2pt" height="347.04pt" viewBox="0 0 349.2 347.04" version="1.1"><metadata></metadata><defs><style type="text/css">*{stroke-linejoin: round; stroke-linecap: butt}</style></defs><g id="figure_1"><g id="patch_1"><path d="M 0 347.04 L 349.2 347.04 L 349.2 -0 L 0 -0 L 0 347.04 z " style="fill: none"></path></g><g id="axes_1"><g id="text_1"><g style="fill: #333333" transform="translate(290.063125 178.943906) rotate(-90) scale(0.14 -0.14)"><defs><path id="DejaVuSans-47" d="M 3809 666 L 3809 1919 L 2778 1919 L 2778 2438 L 4434 2438 L 4434 434 Q 4069 175 3628 42 Q 3188 -91 2688 -91 Q 1594 -91 976 548 Q 359 1188 359 2328 Q 359 3472 976 4111 Q 1594 4750 2688 4750 Q 3144 4750 3555 4637 Q 3966 4525 4313 4306 L 4313 3634 Q 3963 3931 3569 4081 Q 3175 4231 2741 4231 Q 1884 4231 1454 3753 Q 1025 3275 1025 2328 Q 1025 1384 1454 906 Q 1884 428 2741 428 Q 3075 428 3337 486 Q 3600 544 3809 666 z " transform="scale(0.015625)"></path></defs><use xlink:href="#DejaVuSans-47"></use></g></g><g id="text_2"><g style="fill: #333333" transform="translate(290.055923 167.930279) rotate(-95.538462) scale(0.14 -0.14)"><defs><path id="DejaVuSans-4f" d="M 2522 4238 Q 1834 4238 1429 3725 Q 1025 3213 1025 2328 Q 1025 1447 1429 934 Q 1834 422 2522 422 Q 3209 422 3611 934 Q 4013 1447 4013 2328 Q 4013 3213 3611 3725 Q 3209 4238 2522 4238 z M 2522 4750 Q 3503 4750 4090 4092 Q 4678 3434 4678 2328 Q 4678 1225 4090 567 Q 3503 -91 2522 -91 Q 1538 -91 948 565 Q 359 1222 359 2328 Q 359 3434 948 4092 Q 1538 4750 2522 4750 z " transform="scale(0.015625)"></path></defs><use xlink:href="#DejaVuSans-4f"></use></g></g><g id="text_3"><g style="fill: #333333" transform="translate(288.339483 153.658022) rotate(-101.076923) scale(0.14 -0.14)"><defs><path id="DejaVuSans-20" transform="scale(0.015625)"></path></defs><use xlink:href="#DejaVuSans-20"></use></g></g><g id="text_4"><g style="fill: #333333" transform="translate(286.46461 144.806649) rotate(-106.615385) scale(0.14 -0.14)"><defs><path id="DejaVuSans-54" d="M -19 4666 L 3928 4666 L 3928 4134 L 2272 4134 L 2272 0 L 1638 0 L 1638 4134 L -19 4134 L -19 4666 z " transform="scale(0.015625)"></path></defs><use xlink:href="#DejaVuSans-54"></use></g></g><g id="text_5"><g style="fill: #333333" transform="translate(283.61693 135.354471) rotate(-112.153846) scale(0.14 -0.14)"><use xlink:href="#DejaVuSans-4f"></use></g></g><g id="text_6"><g style="fill: #333333" transform="translate(277.871384 122.166074) rotate(-117.692308) scale(0.14 -0.14)"><use xlink:href="#DejaVuSans-20"></use></g></g><g id="text_7"><g style="fill: #333333" transform="translate(273.524466 114.215634) rotate(-123.230769) scale(0.14 -0.14)"><use xlink:href="#DejaVuSans-54"></use></g></g><g id="text_8"><g style="fill: #333333" transform="translate(267.920013 105.77393) rotate(-128.769231) scale(0.14 -0.14)"><defs><path id="DejaVuSans-48" d="M 628 4666 L 1259 4666 L 1259 2753 L 3553 2753 L 3553 4666 L 4184 4666 L 4184 0 L 3553 0 L 3553 2222 L 1259 2222 L 1259 0 L 628 0 L 628 4666 z " transform="scale(0.015625)"></path></defs><use xlink:href="#DejaVuSans-48"></use></g></g><g id="text_9"><g style="fill: #333333" transform="translate(260.314895 96.535807) rotate(-134.307692) scale(0.14 -0.14)"><defs><path id="DejaVuSans-45" d="M 628 4666 L 3578 4666 L 3578 4134 L 1259 4134 L 1259 2753 L 3481 2753 L 3481 2222 L 1259 2222 L 1259 531 L 3634 531 L 3634 0 L 628 0 L 628 4666 z " transform="scale(0.015625)"></path></defs><use xlink:href="#DejaVuSans-45"></use></g></g><g id="text_10"><g style="fill: #333333" transform="translate(252.773057 88.956478) rotate(-139.846154) scale(0.14 -0.14)"><defs><path id="DejaVuSans-52" d="M 2841 2188 Q 3044 2119 3236 1894 Q 3428 1669 3622 1275 L 4263 0 L 3584 0 L 2988 1197 Q 2756 1666 2539 1819 Q 2322 1972 1947 1972 L 1259 1972 L 1259 0 L 628 0 L 628 4666 L 2053 4666 Q 2853 4666 3247 4331 Q 3641 3997 3641 3322 Q 3641 2881 3436 2590 Q 3231 2300 2841 2188 z M 1259 4147 L 1259 2491 L 2053 2491 Q 2509 2491 2742 2702 Q 2975 2913 2975 3322 Q 2975 3731 2742 3939 Q 2509 4147 2053 4147 L 1259 4147 z " transform="scale(0.015625)"></path></defs><use xlink:href="#DejaVuSans-52"></use></g></g><g id="text_11"><g style="fill: #333333" transform="translate(244.131338 81.808402) rotate(-145.384615) scale(0.14 -0.14)"><defs><path id="DejaVuSans-41" d="M 2188 4044 L 1331 1722 L 3047 1722 L 2188 4044 z M 1831 4666 L 2547 4666 L 4325 0 L 3669 0 L 3244 1197 L 1141 1197 L 716 0 L 50 0 L 1831 4666 z " transform="scale(0.015625)"></path></defs><use xlink:href="#DejaVuSans-41"></use></g></g><g id="text_12"><g style="fill: #333333" transform="translate(234.401991 75.289406) rotate(-150.923077) scale(0.14 -0.14)"><defs><path id="DejaVuSans-50" d="M 1259 4147 L 1259 2394 L 2053 2394 Q 2494 2394 2734 2622 Q 2975 2850 2975 3272 Q 2975 3691 2734 3919 Q 2494 4147 2053 4147 L 1259 4147 z M 628 4666 L 2053 4666 Q 2838 4666 3239 4311 Q 3641 3956 3641 3272 Q 3641 2581 3239 2228 Q 2838 1875 2053 1875 L 1259 1875 L 1259 0 L 628 0 L 628 4666 z " transform="scale(0.015625)"></path></defs><use xlink:href="#DejaVuSans-50"></use></g></g><g id="text_13"><g style="fill: #333333" transform="translate(224.631599 70.031869) rotate(-156.461538) scale(0.14 -0.14)"><defs><path id="DejaVuSans-59" d="M -13 4666 L 666 4666 L 1959 2747 L 3244 4666 L 3922 4666 L 2272 2222 L 2272 0 L 1638 0 L 1638 2222 L -13 4666 z " transform="scale(0.015625)"></path></defs><use xlink:href="#DejaVuSans-59"></use></g></g><g id="text_14"><g style="fill: #333333" transform="translate(212.395871 65.08027) rotate(-162) scale(0.14 -0.14)"><use xlink:href="#DejaVuSans-20"></use></g></g><g id="text_15"><g style="fill: #333333" transform="translate(203.546751 62.371052) rotate(-167.538462) scale(0.14 -0.14)"><defs><path id="DejaVuSans-2022" d="M 959 2381 Q 959 2769 1229 3036 Q 1500 3303 1894 3303 Q 2281 3303 2548 3036 Q 2816 2769 2816 2381 Q 2816 1991 2547 1722 Q 2278 1453 1888 1453 Q 1497 1453 1228 1722 Q 959 1991 959 2381 z " transform="scale(0.015625)"></path></defs><use xlink:href="#DejaVuSans-2022"></use></g></g><g id="text_16"><g style="fill: #333333" transform="translate(190.726009 59.881638) rotate(-173.076923) scale(0.14 -0.14)"><use xlink:href="#DejaVuSans-20"></use></g></g><g id="text_17"><g style="fill: #333333" transform="translate(181.83263 58.91776) rotate(-178.615385) scale(0.14 -0.14)"><defs><path id="DejaVuSans-53" d="M 3425 4513 L 3425 3897 Q 3066 4069 2747 4153 Q 2428 4238 2131 4238 Q 1616 4238 1336 4038 Q 1056 3838 1056 3469 Q 1056 3159 1242 3001 Q 1428 2844 1947 2747 L 2328 2669 Q 3034 2534 3370 2195 Q 3706 1856 3706 1288 Q 3706 609 3251 259 Q 2797 -91 1919 -91 Q 1588 -91 1214 -16 Q 841 59 441 206 L 441 856 Q 825 641 1194 531 Q 1563 422 1919 422 Q 2459 422 2753 634 Q 3047 847 3047 1241 Q 3047 1584 2836 1778 Q 2625 1972 2144 2069 L 1759 2144 Q 1053 2284 737 2584 Q 422 2884 422 3419 Q 422 4038 858 4394 Q 1294 4750 2059 4750 Q 2388 4750 2728 4690 Q 3069 4631 3425 4513 z " transform="scale(0.015625)"></path></defs><use xlink:href="#DejaVuSans-53"></use></g></g><g id="text_18"><g style="fill: #333333" transform="translate(171.012311 58.731438) rotate(-184.153846) scale(0.14 -0.14)"><use xlink:href="#DejaVuSans-41"></use></g></g><g id="text_19"><g style="fill: #333333" transform="translate(159.881058 59.608542) rotate(-189.692308) scale(0.14 -0.14)"><defs><path id="DejaVuSans-56" d="M 1831 0 L 50 4666 L 709 4666 L 2188 738 L 3669 4666 L 4325 4666 L 2547 0 L 1831 0 z " transform="scale(0.015625)"></path></defs><use xlink:href="#DejaVuSans-56"></use></g></g><g id="text_20"><g style="fill: #333333" transform="translate(148.53475 61.645176) rotate(-195.230769) scale(0.14 -0.14)"><use xlink:href="#DejaVuSans-45"></use></g></g><g id="text_21"><g style="fill: #333333" transform="translate(135.736331 65.444429) rotate(-200.769231) scale(0.14 -0.14)"><use xlink:href="#DejaVuSans-20"></use></g></g><g id="text_22"><g style="fill: #333333" transform="translate(127.260365 68.76632) rotate(-206.307692) scale(0.14 -0.14)"><use xlink:href="#DejaVuSans-54"></use></g></g><g id="text_23"><g style="fill: #333333" transform="translate(118.148794 73.271781) rotate(-211.846154) scale(0.14 -0.14)"><use xlink:href="#DejaVuSans-48"></use></g></g><g id="text_24"><g style="fill: #333333" transform="translate(108.009636 79.662118) rotate(-217.384615) scale(0.14 -0.14)"><use xlink:href="#DejaVuSans-45"></use></g></g><g id="text_25"><g style="fill: #333333" transform="translate(97.59685 87.982157) rotate(-222.923077) scale(0.14 -0.14)"><use xlink:href="#DejaVuSans-20"></use></g></g><g id="text_26"><g style="fill: #333333" transform="translate(92.764248 92.250604) rotate(-228.461538) scale(0.14 -0.14)"><defs><path id="DejaVuSans-57" d="M 213 4666 L 850 4666 L 1831 722 L 2809 4666 L 3519 4666 L 4500 722 L 5478 4666 L 6119 4666 L 4947 0 L 4153 0 L 3169 4050 L 2175 0 L 1381 0 L 213 4666 z " transform="scale(0.015625)"></path></defs><use xlink:href="#DejaVuSans-57"></use></g></g><g id="text_27"><g style="fill: #333333" transform="translate(84.42725 101.617747) rotate(-234) scale(0.14 -0.14)"><use xlink:href="#DejaVuSans-4f"></use></g></g><g id="text_28"><g style="fill: #333333" transform="translate(77.540094 111.157302) rotate(-239.538462) scale(0.14 -0.14)"><use xlink:href="#DejaVuSans-52"></use></g></g><g id="text_29"><g style="fill: #333333" transform="translate(71.533048 121.630027) rotate(-245.076923) scale(0.14 -0.14)"><defs><path id="DejaVuSans-4c" d="M 628 4666 L 1259 4666 L 1259 531 L 3531 531 L 3531 0 L 628 0 L 628 4666 z " transform="scale(0.015625)"></path></defs><use xlink:href="#DejaVuSans-4c"></use></g></g><g id="text_30"><g style="fill: #333333" transform="translate(67.471254 130.351405) rotate(-250.615385) scale(0.14 -0.14)"><defs><path id="DejaVuSans-44" d="M 1259 4147 L 1259 519 L 2022 519 Q 2988 519 3436 956 Q 3884 1394 3884 2338 Q 3884 3275 3436 3711 Q 2988 4147 2022 4147 L 1259 4147 z M 628 4666 L 1925 4666 Q 3281 4666 3915 4102 Q 4550 3538 4550 2338 Q 4550 1131 3912 565 Q 3275 0 1925 0 L 628 0 L 628 4666 z " transform="scale(0.015625)"></path></defs><use xlink:href="#DejaVuSans-44"></use></g></g><g id="text_31"><g style="fill: #333333" transform="translate(63.024426 143.900131) rotate(-256.153846) scale(0.14 -0.14)"><use xlink:href="#DejaVuSans-20"></use></g></g><g id="text_32"><g style="fill: #333333" transform="translate(60.945081 152.855296) rotate(-261.692308) scale(0.14 -0.14)"><use xlink:href="#DejaVuSans-2022"></use></g></g><g id="text_33"><g style="fill: #333333" transform="translate(59.379192 165.754282) rotate(-267.230769) scale(0.14 -0.14)"><use xlink:href="#DejaVuSans-20"></use></g></g><g id="text_34"><g style="fill: #333333" transform="translate(59.009662 173.646056) rotate(-272.769231) scale(0.14 -0.14)"><use xlink:href="#DejaVuSans-47"></use></g></g><g id="text_35"><g style="fill: #333333" transform="translate(59.552319 184.646636) rotate(-278.307692) scale(0.14 -0.14)"><use xlink:href="#DejaVuSans-4f"></use></g></g><g id="text_36"><g style="fill: #333333" transform="translate(61.959621 198.819785) rotate(-283.846154) scale(0.14 -0.14)"><use xlink:href="#DejaVuSans-20"></use></g></g><g id="text_37"><g style="fill: #333333" transform="translate(64.263209 207.571044) rotate(-289.384615) scale(0.14 -0.14)"><use xlink:href="#DejaVuSans-54"></use></g></g><g id="text_38"><g style="fill: #333333" transform="translate(67.567401 216.875719) rotate(-294.923077) scale(0.14 -0.14)"><use xlink:href="#DejaVuSans-4f"></use></g></g><g id="text_39"><g style="fill: #333333" transform="translate(73.946461 229.772545) rotate(-300.461538) scale(0.14 -0.14)"><use xlink:href="#DejaVuSans-20"></use></g></g><g id="text_40"><g style="fill: #333333" transform="translate(78.675312 237.50539) rotate(-306) scale(0.14 -0.14)"><use xlink:href="#DejaVuSans-54"></use></g></g><g id="text_41"><g style="fill: #333333" transform="translate(84.683787 245.668442) rotate(-311.538462) scale(0.14 -0.14)"><use xlink:href="#DejaVuSans-48"></use></g></g><g id="text_42"><g style="fill: #333333" transform="translate(92.728865 254.530577) rotate(-317.076923) scale(0.14 -0.14)"><use xlink:href="#DejaVuSans-45"></use></g></g><g id="text_43"><g style="fill: #333333" transform="translate(100.630368 261.739145) rotate(-322.615385) scale(0.14 -0.14)"><use xlink:href="#DejaVuSans-52"></use></g></g><g id="text_44"><g style="fill: #333333" transform="translate(109.609384 268.464033) rotate(-328.153846) scale(0.14 -0.14)"><use xlink:href="#DejaVuSans-41"></use></g></g><g id="text_45"><g style="fill: #333333" transform="translate(119.644097 274.508214) rotate(-333.692308) scale(0.14 -0.14)"><use xlink:href="#DejaVuSans-50"></use></g></g><g id="text_46"><g style="fill: #333333" transform="translate(129.658579 279.290583) rotate(-339.230769) scale(0.14 -0.14)"><use xlink:href="#DejaVuSans-59"></use></g></g><g id="text_47"><g style="fill: #333333" transform="translate(142.120439 283.648394) rotate(-344.769231) scale(0.14 -0.14)"><use xlink:href="#DejaVuSans-20"></use></g></g><g id="text_48"><g style="fill: #333333" transform="translate(151.090999 285.93016) rotate(-350.307692) scale(0.14 -0.14)"><use xlink:href="#DejaVuSans-2022"></use></g></g><g id="text_49"><g style="fill: #333333" transform="translate(164.017608 287.800567) rotate(-355.846154) scale(0.14 -0.14)"><use xlink:href="#DejaVuSans-20"></use></g></g><g id="text_50"><g style="fill: #333333" transform="translate(172.947413 288.337003) rotate(-1.384615) scale(0.14 -0.14)"><use xlink:href="#DejaVuSans-53"></use></g></g><g id="text_51"><g style="fill: #333333" transform="translate(183.764017 288.003701) rotate(-6.923077) scale(0.14 -0.14)"><use xlink:href="#DejaVuSans-41"></use></g></g><g id="text_52"><g style="fill: #333333" transform="translate(194.839491 286.59317) rotate(-12.461538) scale(0.14 -0.14)"><use xlink:href="#DejaVuSans-56"></use></g></g><g id="text_53"><g style="fill: #333333" transform="translate(206.073426 284.014018) rotate(-18) scale(0.14 -0.14)"><use xlink:href="#DejaVuSans-45"></use></g></g><g id="text_54"><g style="fill: #333333" transform="translate(218.672307 279.604063) rotate(-23.538462) scale(0.14 -0.14)"><use xlink:href="#DejaVuSans-20"></use></g></g><g id="text_55"><g style="fill: #333333" transform="translate(226.976541 275.87963) rotate(-29.076923) scale(0.14 -0.14)"><use xlink:href="#DejaVuSans-54"></use></g></g><g id="text_56"><g style="fill: #333333" transform="translate(235.858164 270.942158) rotate(-34.615385) scale(0.14 -0.14)"><use xlink:href="#DejaVuSans-48"></use></g></g><g id="text_57"><g style="fill: #333333" transform="translate(245.674833 264.072192) rotate(-40.153846) scale(0.14 -0.14)"><use xlink:href="#DejaVuSans-45"></use></g></g><g id="text_58"><g style="fill: #333333" transform="translate(255.671323 255.261361) rotate(-45.692308) scale(0.14 -0.14)"><use xlink:href="#DejaVuSans-20"></use></g></g><g id="text_59"><g style="fill: #333333" transform="translate(260.289653 250.766768) rotate(-51.230769) scale(0.14 -0.14)"><use xlink:href="#DejaVuSans-57"></use></g></g><g id="text_60"><g style="fill: #333333" transform="translate(268.161736 241.009879) rotate(-56.769231) scale(0.14 -0.14)"><use xlink:href="#DejaVuSans-4f"></use></g></g><g id="text_61"><g style="fill: #333333" transform="translate(274.57715 231.150564) rotate(-62.307692) scale(0.14 -0.14)"><use xlink:href="#DejaVuSans-52"></use></g></g><g id="text_62"><g style="fill: #333333" transform="translate(280.068232 220.401411) rotate(-67.846154) scale(0.14 -0.14)"><use xlink:href="#DejaVuSans-4c"></use></g></g><g id="text_63"><g style="fill: #333333" transform="translate(283.700811 211.495246) rotate(-73.384615) scale(0.14 -0.14)"><use xlink:href="#DejaVuSans-44"></use></g></g><g id="text_64"><g style="fill: #333333" transform="translate(287.48464 197.748462) rotate(-78.923077) scale(0.14 -0.14)"><use xlink:href="#DejaVuSans-20"></use></g></g><g id="text_65"><g style="fill: #333333" transform="translate(289.125604 188.70394) rotate(-84.461538) scale(0.14 -0.14)"><use xlink:href="#DejaVuSans-2022"></use></g></g></g></g></svg> 